<svg width="235" height="110" viewBox="0 0 235 110" fill="none" xmlns="http://www.w3.org/2000/svg">
<path d="M55.2763 68.6481C55.2763 71.2284 55.3786 73.3333 55.5833 74.963C55.7881 76.5247 56.2316 77.7809 56.9141 78.7315C57.5965 79.6142 58.5178 80.2253 59.6779 80.5648C60.838 80.8364 62.4076 80.9722 64.3866 80.9722V84.537H37.1579V80.9722C39.0005 80.9722 40.4677 80.8025 41.5596 80.463C42.7197 80.1235 43.6068 79.5463 44.221 78.7315C44.8352 77.8488 45.2446 76.6605 45.4494 75.1667C45.6541 73.6728 45.7564 71.7377 45.7564 69.3611V12.1204L43.5045 10.1852C41.116 8.08025 39.1028 6.68827 37.465 6.00926C35.8272 5.26234 34.087 4.88889 32.2445 4.88889C30.4019 4.88889 28.7641 5.16049 27.331 5.7037C25.9662 6.24691 24.8061 7.23148 23.8507 8.6574C22.9635 10.0833 22.2811 12.0525 21.8034 14.5648C21.394 17.0772 21.1892 20.3025 21.1892 24.2407V32.1852H37.6697V36.9722H21.1892V68.1389C21.1892 70.6512 21.3257 72.7562 21.5987 74.4537C21.9399 76.0833 22.4517 77.3735 23.1341 78.3241C23.8848 79.2747 24.8743 79.9537 26.1027 80.3611C27.331 80.7685 28.9006 80.9722 30.8114 80.9722V84.537H2.76381V80.9722C4.6746 80.9722 6.21005 80.8364 7.37017 80.5648C8.53028 80.2932 9.41744 79.716 10.0316 78.8333C10.6458 77.9506 11.0552 76.7284 11.26 75.1667C11.4647 73.6049 11.5671 71.534 11.5671 68.9537V36.9722H0V32.1852H11.5671V24.8519C11.5671 17.0432 13.6143 10.966 17.7089 6.62037C21.8717 2.20679 27.7405 0 35.3154 0C37.7039 0 39.8194 0.203703 41.6619 0.611109C43.5727 1.01852 45.1764 1.59568 46.473 2.34259L55.2763 0V68.6481Z" fill="black"/>
<path d="M100.391 29.537C104.281 29.537 107.966 30.25 111.447 31.6759C114.927 33.034 117.964 34.9352 120.557 37.3796C123.218 39.8241 125.3 42.7438 126.801 46.1389C128.371 49.4661 129.155 53.1327 129.155 57.1389C129.155 61.2809 128.371 65.0833 126.801 68.5463C125.3 72.0093 123.218 74.9969 120.557 77.5092C117.964 80.0216 114.927 81.9907 111.447 83.4167C107.966 84.8426 104.281 85.5556 100.391 85.5556C96.5697 85.5556 92.9188 84.8765 89.4384 83.5185C86.0263 82.0926 83.0237 80.1235 80.4305 77.6111C77.8372 75.0988 75.79 72.1111 74.2887 68.6481C72.7873 65.1173 72.0367 61.2809 72.0367 57.1389C72.0367 53.1327 72.7873 49.4321 74.2887 46.037C75.79 42.642 77.8372 39.7222 80.4305 37.2778C83.0237 34.8333 86.0263 32.9321 89.4384 31.5741C92.9188 30.2161 96.5697 29.537 100.391 29.537ZM100.391 34.4259C97.8663 34.4259 95.5461 34.9691 93.4306 36.0556C91.3833 37.142 89.609 38.7037 88.1077 40.7407C86.6746 42.7099 85.5486 45.1204 84.7297 47.9722C83.979 50.7562 83.6037 53.8457 83.6037 57.2407C83.6037 60.7716 83.979 63.963 84.7297 66.8148C85.5486 69.6667 86.6746 72.1111 88.1077 74.1481C89.609 76.1173 91.3833 77.6451 93.4306 78.7315C95.4779 79.8179 97.7981 80.3611 100.391 80.3611C102.985 80.3611 105.339 79.8179 107.454 78.7315C109.57 77.6451 111.378 76.0833 112.88 74.0463C114.381 72.0093 115.541 69.5648 116.36 66.713C117.179 63.8611 117.588 60.7037 117.588 57.2407C117.588 53.8457 117.179 50.7562 116.36 47.9722C115.541 45.1883 114.381 42.8117 112.88 40.8426C111.378 38.8056 109.57 37.2438 107.454 36.1574C105.339 35.0031 102.985 34.4259 100.391 34.4259Z" fill="black"/>
<path d="M155.596 37.8889H156.005C158.189 35.3086 160.543 33.2716 163.068 31.7778C165.593 30.284 168.528 29.537 171.871 29.537C175.761 29.537 179.31 30.25 182.517 31.6759C185.793 33.034 188.625 34.9691 191.013 37.4815C193.402 39.9938 195.244 42.9815 196.541 46.4444C197.906 49.8395 198.588 53.5741 198.588 57.6482C198.588 61.7901 197.906 65.5926 196.541 69.0555C195.176 72.4506 193.299 75.3704 190.911 77.8148C188.522 80.2593 185.69 82.1605 182.415 83.5185C179.139 84.8765 175.591 85.5556 171.769 85.5556C168.63 85.5556 165.764 85.0463 163.17 84.0278C160.646 82.9414 158.257 81.2099 156.005 78.8333V93.7037C156.005 96.4197 156.142 98.5926 156.415 100.222C156.687 101.852 157.233 103.108 158.052 103.991C158.871 104.873 160.031 105.485 161.533 105.824C163.102 106.164 165.15 106.367 167.674 106.435V110H136.147V106.435C138.194 106.367 139.832 106.164 141.06 105.824C142.357 105.485 143.346 104.873 144.029 103.991C144.779 103.108 145.291 101.886 145.564 100.324C145.837 98.8302 145.973 96.8611 145.973 94.4167V56.3241C145.973 52.3858 145.905 49.1605 145.769 46.6481C145.7 44.1358 145.53 42.4043 145.257 41.4537C144.916 39.8241 144.131 38.7377 142.903 38.1944C141.674 37.5833 139.354 37.2778 135.942 37.2778V33.8148L155.596 29.9444V37.8889ZM158.666 40.8426C157.779 42.2006 157.097 43.8303 156.619 45.7315C156.21 47.5648 156.005 49.9753 156.005 52.963V60.9074C156.005 62.7407 156.039 64.3364 156.107 65.6944C156.244 66.9846 156.414 68.1049 156.619 69.0555C156.824 70.0062 157.097 70.8549 157.438 71.6018C157.779 72.3488 158.223 73.0617 158.769 73.7407C160.338 75.9136 162.215 77.6111 164.399 78.8333C166.583 79.9877 168.869 80.5648 171.257 80.5648C175.966 80.5648 179.753 78.5957 182.62 74.6574C185.554 70.7191 187.021 65.1852 187.021 58.0555C187.021 54.5247 186.612 51.3333 185.793 48.4815C185.042 45.5617 183.95 43.0833 182.517 41.0463C181.084 38.9414 179.344 37.3117 177.297 36.1574C175.318 35.0031 173.1 34.4259 170.643 34.4259C168.186 34.4259 165.9 35.0031 163.785 36.1574C161.737 37.2438 160.031 38.8056 158.666 40.8426Z" fill="black"/>
<path d="M216.779 63.4537L221.693 17.1111C222.17 12.7654 222.955 9.67593 224.047 7.84259C225.207 6.00926 226.982 5.09259 229.37 5.09259C231.281 5.09259 232.68 5.7037 233.567 6.92593C234.522 8.08024 235 10.0154 235 12.7315C235 14.0216 234.864 15.3117 234.591 16.6018C234.386 17.8241 234.01 19.25 233.465 20.8796C232.987 22.4414 232.339 24.3086 231.52 26.4815C230.701 28.5864 229.677 31.1667 228.449 34.2222C227.493 36.5988 226.572 39.1111 225.685 41.7593C224.866 44.4074 224.081 47.0216 223.331 49.6018C222.648 52.1821 222.034 54.6945 221.488 57.1389C221.01 59.5154 220.635 61.6204 220.362 63.4537H216.779ZM215.756 85.5556C214.05 85.5556 212.548 84.9784 211.252 83.8241C210.023 82.6698 209.409 81.1759 209.409 79.3426C209.409 77.5093 210.023 75.9475 211.252 74.6574C212.48 73.3673 214.016 72.7222 215.858 72.7222C217.701 72.7222 219.236 73.3673 220.464 74.6574C221.693 75.9475 222.307 77.4753 222.307 79.2407C222.307 81.0062 221.659 82.5 220.362 83.7222C219.065 84.9444 217.53 85.5556 215.756 85.5556Z" fill="black"/>
<path d="M93.4062 45.9929C94.1617 47.3014 94.8219 48.4033 95.3868 49.2985C95.9337 50.2041 96.4415 50.9796 96.9102 51.6249C97.3609 52.2807 97.7872 52.8525 98.1889 53.3402C98.5907 53.828 99.0109 54.3269 99.4496 54.8369C99.8041 55.2429 100.093 55.5775 100.317 55.8407C100.551 56.1202 100.747 56.3559 100.906 56.5478C101.056 56.7664 101.192 56.9604 101.314 57.1299C101.428 57.3262 101.555 57.547 101.697 57.7924C101.952 58.234 102.016 58.6987 101.889 59.1864C101.753 59.7008 101.415 60.1142 100.874 60.4264C100.334 60.7385 99.8155 60.8195 99.3202 60.6693C98.8164 60.5458 98.4369 60.2633 98.1819 59.8216C98.0497 59.5926 97.927 59.38 97.8136 59.1837C97.7098 59.0038 97.6097 58.7889 97.5136 58.5391C97.3994 58.2997 97.2749 58.0008 97.1401 57.6424C97.0147 57.3004 96.8645 56.8529 96.6893 56.2997C96.4858 55.6975 96.2733 55.1005 96.0518 54.5087C95.8397 53.9332 95.5624 53.2864 95.2198 52.5682C94.8867 51.8663 94.4737 51.047 93.9809 50.1102C93.4881 49.1734 92.864 48.0507 92.1085 46.7421L93.4062 45.9929Z" fill="#FF5E5E"/>
<path d="M119.274 46.2881C118.03 47.1453 109.742 52.8795 108.895 53.5139C108.036 54.131 107.303 54.6989 106.697 55.2175C106.079 55.7189 105.543 56.1893 105.089 56.6286C104.635 57.0679 104.171 57.5265 103.697 58.0043C103.321 58.39 103.01 58.705 102.766 58.9493C102.506 59.2043 102.286 59.4186 102.108 59.5922C101.902 59.7593 101.719 59.9104 101.56 60.0454C101.373 60.174 101.163 60.3187 100.93 60.4794C100.51 60.7687 100.052 60.8694 99.5556 60.7817C99.0319 60.6875 98.593 60.3833 98.2388 59.8691C97.8846 59.3549 97.7627 58.845 97.873 58.3393C97.956 57.8272 98.2075 57.4265 98.6275 57.1372C98.8452 56.9872 99.0474 56.8479 99.2341 56.7193C99.4052 56.6015 99.6114 56.4847 99.8528 56.3689C100.082 56.2361 100.37 56.0882 100.717 55.9253C101.048 55.7732 101.482 55.5878 102.019 55.3692C102.604 55.1184 103.182 54.8591 103.754 54.5912C104.311 54.334 104.934 54.0061 105.622 53.6075C106.295 53.2196 107.079 52.7428 107.974 52.177C108.869 51.6112 117.179 45.9113 118.424 45.0541L119.274 46.2881Z" fill="#FF5E5E"/>
</svg>
